<?xml version="1.0" standalone="no"?>
<!DOCTYPE svg PUBLIC "-//W3C//DTD SVG 20010904//EN"
 "http://www.w3.org/TR/2001/REC-SVG-20010904/DTD/svg10.dtd">
<svg version="1.0" xmlns="http://www.w3.org/2000/svg"
 width="269.000000pt" height="269.000000pt" viewBox="0 0 269.000000 269.000000"
 preserveAspectRatio="xMidYMid meet">

<g transform="translate(0.000000,269.000000) scale(0.100000,-0.100000)"
fill="#000000" stroke="none">
<path d="M1345 2589 c-22 -18 -27 -19 -52 -5 -39 20 -76 10 -97 -25 -18 -31
-36 -38 -36 -14 0 8 -10 19 -21 26 -18 9 -24 8 -31 -4 -5 -9 -14 -14 -22 -11
-12 5 -90 -52 -161 -117 -16 -15 -46 -30 -65 -34 -19 -4 -55 -16 -80 -27 l-45
-20 45 -12 c28 -7 45 -17 45 -26 0 -8 7 -20 15 -27 12 -9 7 -13 -29 -23 -38
-10 -41 -13 -26 -24 15 -11 16 -19 4 -90 -13 -74 -12 -80 13 -154 16 -48 23
-90 21 -113 -3 -20 2 -52 11 -73 12 -29 13 -43 5 -58 -8 -15 -7 -29 5 -57 8
-20 20 -55 26 -78 8 -32 19 -47 42 -59 31 -16 31 -16 23 8 -4 12 -8 46 -9 73
-1 46 1 50 25 53 16 2 39 -8 65 -28 64 -52 78 -92 49 -146 -21 -41 -19 -59 10
-78 19 -12 25 -25 25 -52 0 -34 40 -97 92 -145 34 -31 18 -69 -27 -69 -8 0
-39 15 -70 34 l-56 34 -106 -109 c-123 -126 -139 -135 -458 -259 -273 -107
-276 -108 -308 -138 -16 -15 -45 -58 -64 -95 l-34 -69 6 -151 c5 -104 3 -173
-5 -217 -7 -36 -15 -98 -17 -137 l-5 -73 526 0 526 0 0 28 c0 15 -9 124 -20
242 -29 305 -60 693 -56 697 2 2 18 -32 36 -76 30 -76 33 -79 56 -71 52 20 91
44 126 77 23 23 42 33 52 30 9 -4 26 -3 39 2 18 7 38 -3 117 -60 52 -38 99
-69 104 -69 4 0 24 14 43 31 19 16 37 28 40 26 11 -12 2 -205 -16 -327 -11
-74 -29 -211 -41 -305 -11 -93 -22 -182 -25 -197 l-4 -28 543 0 543 0 6 38 c3
20 1 60 -5 87 -5 28 -13 149 -16 270 -8 239 -11 255 -78 334 -34 41 -30 39
-365 176 -156 65 -301 126 -322 137 -21 10 -71 50 -111 88 -40 39 -78 70 -85
70 -7 0 -11 -21 -11 -54 0 -93 -7 -102 -90 -110 -40 -4 -74 -5 -77 -2 -3 3 3
13 14 23 44 40 103 123 110 154 3 18 24 56 45 83 21 28 50 82 65 120 15 37 32
70 38 71 5 2 22 6 37 9 20 5 30 16 38 43 7 21 24 65 38 98 14 33 27 78 28 100
1 22 10 60 19 85 12 32 17 76 17 150 0 180 -43 308 -135 404 -42 43 -68 59
-135 85 -46 18 -107 36 -135 42 -79 14 -85 18 -96 52 -6 18 -22 37 -36 44 -21
9 -29 8 -50 -8z m-95 -1049 c-11 -26 -10 -33 4 -49 16 -17 15 -18 -19 -7 -36
11 -56 37 -33 45 7 2 21 14 33 27 25 29 31 23 15 -16z m-134 -401 c59 -46 94
-84 94 -100 0 -3 -30 0 -67 8 -123 24 -113 17 -113 77 0 47 5 66 18 66 2 0 33
-23 68 -51z"/>
</g>
</svg>
